<mxfile host="app.diagrams.net" modified="2021-07-26T06:05:03.208Z" agent="5.0 (Windows NT 10.0; Win64; x64) AppleWebKit/537.36 (KHTML, like Gecko) Chrome/92.0.4515.107 Safari/537.36" etag="RvhoUn8E_ylQDUklGGOf" version="14.9.1" type="github">
  <diagram id="Wfi5oMuXwvW70B7s7s_G" name="Page-1">
    <mxGraphModel dx="1822" dy="762" grid="1" gridSize="10" guides="1" tooltips="1" connect="1" arrows="1" fold="1" page="0" pageScale="1" pageWidth="827" pageHeight="1169" math="0" shadow="0">
      <root>
        <mxCell id="0" />
        <mxCell id="1" parent="0" />
        <mxCell id="t_kX7gGa2HLUqVjrHy8t-1" value="INDEX.JS" style="rounded=0;whiteSpace=wrap;html=1;" parent="1" vertex="1">
          <mxGeometry x="40" y="40" width="120" height="60" as="geometry" />
        </mxCell>
        <mxCell id="t_kX7gGa2HLUqVjrHy8t-7" value="" style="edgeStyle=orthogonalEdgeStyle;rounded=0;orthogonalLoop=1;jettySize=auto;html=1;" parent="1" source="t_kX7gGa2HLUqVjrHy8t-3" target="t_kX7gGa2HLUqVjrHy8t-6" edge="1">
          <mxGeometry relative="1" as="geometry" />
        </mxCell>
        <mxCell id="t_kX7gGa2HLUqVjrHy8t-3" value="APP" style="rounded=0;whiteSpace=wrap;html=1;" parent="1" vertex="1">
          <mxGeometry x="340" y="180" width="120" height="60" as="geometry" />
        </mxCell>
        <mxCell id="t_kX7gGa2HLUqVjrHy8t-11" value="" style="edgeStyle=orthogonalEdgeStyle;rounded=0;orthogonalLoop=1;jettySize=auto;html=1;" parent="1" source="t_kX7gGa2HLUqVjrHy8t-6" target="t_kX7gGa2HLUqVjrHy8t-10" edge="1">
          <mxGeometry relative="1" as="geometry" />
        </mxCell>
        <mxCell id="t_kX7gGa2HLUqVjrHy8t-6" value="BrowserRoute" style="rounded=0;whiteSpace=wrap;html=1;" parent="1" vertex="1">
          <mxGeometry x="340" y="320" width="120" height="60" as="geometry" />
        </mxCell>
        <mxCell id="t_kX7gGa2HLUqVjrHy8t-8" value="" style="endArrow=classic;html=1;exitX=0;exitY=1;exitDx=0;exitDy=0;" parent="1" source="t_kX7gGa2HLUqVjrHy8t-6" target="t_kX7gGa2HLUqVjrHy8t-9" edge="1">
          <mxGeometry width="50" height="50" relative="1" as="geometry">
            <mxPoint x="390" y="420" as="sourcePoint" />
            <mxPoint x="250" y="430" as="targetPoint" />
          </mxGeometry>
        </mxCell>
        <mxCell id="t_kX7gGa2HLUqVjrHy8t-9" value="Header" style="rounded=0;whiteSpace=wrap;html=1;" parent="1" vertex="1">
          <mxGeometry x="-130" y="410" width="120" height="60" as="geometry" />
        </mxCell>
        <mxCell id="t_kX7gGa2HLUqVjrHy8t-37" value="" style="edgeStyle=orthogonalEdgeStyle;rounded=0;orthogonalLoop=1;jettySize=auto;html=1;" parent="1" source="t_kX7gGa2HLUqVjrHy8t-10" target="t_kX7gGa2HLUqVjrHy8t-36" edge="1">
          <mxGeometry relative="1" as="geometry" />
        </mxCell>
        <mxCell id="t_kX7gGa2HLUqVjrHy8t-10" value="Navbar" style="rounded=0;whiteSpace=wrap;html=1;" parent="1" vertex="1">
          <mxGeometry x="340" y="410" width="120" height="60" as="geometry" />
        </mxCell>
        <mxCell id="t_kX7gGa2HLUqVjrHy8t-13" value="" style="endArrow=classic;html=1;exitX=1;exitY=1;exitDx=0;exitDy=0;" parent="1" source="t_kX7gGa2HLUqVjrHy8t-6" target="t_kX7gGa2HLUqVjrHy8t-14" edge="1">
          <mxGeometry width="50" height="50" relative="1" as="geometry">
            <mxPoint x="390" y="420" as="sourcePoint" />
            <mxPoint x="510" y="410" as="targetPoint" />
          </mxGeometry>
        </mxCell>
        <mxCell id="t_kX7gGa2HLUqVjrHy8t-16" value="" style="edgeStyle=orthogonalEdgeStyle;rounded=0;orthogonalLoop=1;jettySize=auto;html=1;" parent="1" source="t_kX7gGa2HLUqVjrHy8t-14" target="t_kX7gGa2HLUqVjrHy8t-15" edge="1">
          <mxGeometry relative="1" as="geometry" />
        </mxCell>
        <mxCell id="t_kX7gGa2HLUqVjrHy8t-14" value="Content" style="rounded=0;whiteSpace=wrap;html=1;" parent="1" vertex="1">
          <mxGeometry x="880" y="400" width="120" height="60" as="geometry" />
        </mxCell>
        <mxCell id="t_kX7gGa2HLUqVjrHy8t-20" style="edgeStyle=orthogonalEdgeStyle;rounded=0;orthogonalLoop=1;jettySize=auto;html=1;" parent="1" source="t_kX7gGa2HLUqVjrHy8t-15" target="t_kX7gGa2HLUqVjrHy8t-21" edge="1">
          <mxGeometry relative="1" as="geometry">
            <mxPoint x="340" y="605" as="targetPoint" />
            <Array as="points">
              <mxPoint x="440" y="605" />
              <mxPoint x="390" y="605" />
              <mxPoint x="390" y="610" />
            </Array>
          </mxGeometry>
        </mxCell>
        <mxCell id="t_kX7gGa2HLUqVjrHy8t-25" value="" style="edgeStyle=orthogonalEdgeStyle;rounded=0;orthogonalLoop=1;jettySize=auto;html=1;" parent="1" source="t_kX7gGa2HLUqVjrHy8t-15" target="t_kX7gGa2HLUqVjrHy8t-24" edge="1">
          <mxGeometry relative="1" as="geometry" />
        </mxCell>
        <mxCell id="t_kX7gGa2HLUqVjrHy8t-15" value="Profile" style="rounded=0;whiteSpace=wrap;html=1;" parent="1" vertex="1">
          <mxGeometry x="460" y="520" width="120" height="60" as="geometry" />
        </mxCell>
        <mxCell id="t_kX7gGa2HLUqVjrHy8t-17" value="" style="endArrow=classic;html=1;exitX=1.008;exitY=0.883;exitDx=0;exitDy=0;exitPerimeter=0;" parent="1" source="t_kX7gGa2HLUqVjrHy8t-14" target="t_kX7gGa2HLUqVjrHy8t-18" edge="1">
          <mxGeometry width="50" height="50" relative="1" as="geometry">
            <mxPoint x="390" y="420" as="sourcePoint" />
            <mxPoint x="670" y="510" as="targetPoint" />
          </mxGeometry>
        </mxCell>
        <mxCell id="t_kX7gGa2HLUqVjrHy8t-27" value="" style="edgeStyle=orthogonalEdgeStyle;rounded=0;orthogonalLoop=1;jettySize=auto;html=1;" parent="1" source="t_kX7gGa2HLUqVjrHy8t-18" target="t_kX7gGa2HLUqVjrHy8t-26" edge="1">
          <mxGeometry relative="1" as="geometry" />
        </mxCell>
        <mxCell id="t_kX7gGa2HLUqVjrHy8t-29" value="" style="edgeStyle=orthogonalEdgeStyle;rounded=0;orthogonalLoop=1;jettySize=auto;html=1;" parent="1" source="t_kX7gGa2HLUqVjrHy8t-18" target="t_kX7gGa2HLUqVjrHy8t-28" edge="1">
          <mxGeometry relative="1" as="geometry" />
        </mxCell>
        <mxCell id="t_kX7gGa2HLUqVjrHy8t-18" value="Dialogs" style="rounded=0;whiteSpace=wrap;html=1;" parent="1" vertex="1">
          <mxGeometry x="710" y="540" width="120" height="60" as="geometry" />
        </mxCell>
        <mxCell id="t_kX7gGa2HLUqVjrHy8t-19" value="" style="endArrow=classic;html=1;exitX=0.5;exitY=0;exitDx=0;exitDy=0;entryX=1;entryY=0.5;entryDx=0;entryDy=0;" parent="1" source="t_kX7gGa2HLUqVjrHy8t-3" target="t_kX7gGa2HLUqVjrHy8t-1" edge="1">
          <mxGeometry width="50" height="50" relative="1" as="geometry">
            <mxPoint x="390" y="320" as="sourcePoint" />
            <mxPoint x="440" y="270" as="targetPoint" />
          </mxGeometry>
        </mxCell>
        <mxCell id="t_kX7gGa2HLUqVjrHy8t-21" value="Banner" style="rounded=0;whiteSpace=wrap;html=1;" parent="1" vertex="1">
          <mxGeometry x="30" y="690" width="120" height="60" as="geometry" />
        </mxCell>
        <mxCell id="t_kX7gGa2HLUqVjrHy8t-23" value="" style="edgeStyle=orthogonalEdgeStyle;rounded=0;orthogonalLoop=1;jettySize=auto;html=1;" parent="1" source="t_kX7gGa2HLUqVjrHy8t-22" target="t_kX7gGa2HLUqVjrHy8t-15" edge="1">
          <mxGeometry relative="1" as="geometry" />
        </mxCell>
        <mxCell id="t_kX7gGa2HLUqVjrHy8t-22" value="ProfileInfo" style="rounded=0;whiteSpace=wrap;html=1;" parent="1" vertex="1">
          <mxGeometry x="220" y="760" width="120" height="60" as="geometry" />
        </mxCell>
        <mxCell id="t_kX7gGa2HLUqVjrHy8t-35" value="" style="edgeStyle=orthogonalEdgeStyle;rounded=0;orthogonalLoop=1;jettySize=auto;html=1;" parent="1" source="t_kX7gGa2HLUqVjrHy8t-24" target="t_kX7gGa2HLUqVjrHy8t-34" edge="1">
          <mxGeometry relative="1" as="geometry" />
        </mxCell>
        <mxCell id="t_kX7gGa2HLUqVjrHy8t-24" value="Posts" style="rounded=0;whiteSpace=wrap;html=1;" parent="1" vertex="1">
          <mxGeometry x="530" y="890" width="120" height="60" as="geometry" />
        </mxCell>
        <mxCell id="t_kX7gGa2HLUqVjrHy8t-31" value="" style="edgeStyle=orthogonalEdgeStyle;rounded=0;orthogonalLoop=1;jettySize=auto;html=1;" parent="1" source="t_kX7gGa2HLUqVjrHy8t-26" target="t_kX7gGa2HLUqVjrHy8t-30" edge="1">
          <mxGeometry relative="1" as="geometry" />
        </mxCell>
        <mxCell id="t_kX7gGa2HLUqVjrHy8t-26" value="Chats" style="rounded=0;whiteSpace=wrap;html=1;" parent="1" vertex="1">
          <mxGeometry x="700" y="620" width="120" height="60" as="geometry" />
        </mxCell>
        <mxCell id="t_kX7gGa2HLUqVjrHy8t-33" value="" style="edgeStyle=orthogonalEdgeStyle;rounded=0;orthogonalLoop=1;jettySize=auto;html=1;" parent="1" source="t_kX7gGa2HLUqVjrHy8t-28" target="t_kX7gGa2HLUqVjrHy8t-32" edge="1">
          <mxGeometry relative="1" as="geometry" />
        </mxCell>
        <mxCell id="t_kX7gGa2HLUqVjrHy8t-28" value="Messages" style="rounded=0;whiteSpace=wrap;html=1;" parent="1" vertex="1">
          <mxGeometry x="890" y="610" width="120" height="60" as="geometry" />
        </mxCell>
        <mxCell id="t_kX7gGa2HLUqVjrHy8t-30" value="Chat" style="rounded=0;whiteSpace=wrap;html=1;" parent="1" vertex="1">
          <mxGeometry x="700" y="720" width="120" height="60" as="geometry" />
        </mxCell>
        <mxCell id="t_kX7gGa2HLUqVjrHy8t-32" value="Message" style="rounded=0;whiteSpace=wrap;html=1;" parent="1" vertex="1">
          <mxGeometry x="880" y="780" width="120" height="60" as="geometry" />
        </mxCell>
        <mxCell id="t_kX7gGa2HLUqVjrHy8t-34" value="Post" style="rounded=0;whiteSpace=wrap;html=1;" parent="1" vertex="1">
          <mxGeometry x="170" y="920" width="120" height="60" as="geometry" />
        </mxCell>
        <mxCell id="t_kX7gGa2HLUqVjrHy8t-36" value="NavItem" style="rounded=0;whiteSpace=wrap;html=1;" parent="1" vertex="1">
          <mxGeometry x="280" y="520" width="120" height="60" as="geometry" />
        </mxCell>
        <mxCell id="A7s-7r5UUz3tGZf7DbAX-1" value="Some data&lt;br&gt;As props for App" style="ellipse;whiteSpace=wrap;html=1;" vertex="1" parent="1">
          <mxGeometry x="250" y="20" width="120" height="80" as="geometry" />
        </mxCell>
        <mxCell id="A7s-7r5UUz3tGZf7DbAX-2" value="" style="endArrow=classic;html=1;exitX=1;exitY=0.25;exitDx=0;exitDy=0;entryX=-0.025;entryY=0.413;entryDx=0;entryDy=0;entryPerimeter=0;" edge="1" parent="1" source="t_kX7gGa2HLUqVjrHy8t-1" target="A7s-7r5UUz3tGZf7DbAX-1">
          <mxGeometry width="50" height="50" relative="1" as="geometry">
            <mxPoint x="470" y="240" as="sourcePoint" />
            <mxPoint x="520" y="190" as="targetPoint" />
            <Array as="points" />
          </mxGeometry>
        </mxCell>
        <mxCell id="A7s-7r5UUz3tGZf7DbAX-3" value="" style="endArrow=classic;html=1;exitX=1;exitY=0.5;exitDx=0;exitDy=0;entryX=0.692;entryY=-0.033;entryDx=0;entryDy=0;entryPerimeter=0;" edge="1" parent="1" source="A7s-7r5UUz3tGZf7DbAX-1" target="t_kX7gGa2HLUqVjrHy8t-3">
          <mxGeometry width="50" height="50" relative="1" as="geometry">
            <mxPoint x="470" y="230" as="sourcePoint" />
            <mxPoint x="520" y="180" as="targetPoint" />
          </mxGeometry>
        </mxCell>
        <mxCell id="A7s-7r5UUz3tGZf7DbAX-4" value="" style="endArrow=classic;html=1;exitX=1;exitY=0.5;exitDx=0;exitDy=0;" edge="1" parent="1" source="t_kX7gGa2HLUqVjrHy8t-3" target="A7s-7r5UUz3tGZf7DbAX-5">
          <mxGeometry width="50" height="50" relative="1" as="geometry">
            <mxPoint x="470" y="430" as="sourcePoint" />
            <mxPoint x="630" y="260" as="targetPoint" />
          </mxGeometry>
        </mxCell>
        <mxCell id="A7s-7r5UUz3tGZf7DbAX-5" value="data from App props&lt;br&gt;as data for&lt;br&gt;Content props" style="ellipse;whiteSpace=wrap;html=1;" vertex="1" parent="1">
          <mxGeometry x="570" y="220" width="120" height="80" as="geometry" />
        </mxCell>
        <mxCell id="A7s-7r5UUz3tGZf7DbAX-6" value="" style="endArrow=classic;html=1;exitX=1;exitY=0.5;exitDx=0;exitDy=0;entryX=0.5;entryY=0;entryDx=0;entryDy=0;" edge="1" parent="1" source="A7s-7r5UUz3tGZf7DbAX-5" target="t_kX7gGa2HLUqVjrHy8t-14">
          <mxGeometry width="50" height="50" relative="1" as="geometry">
            <mxPoint x="470" y="410" as="sourcePoint" />
            <mxPoint x="520" y="360" as="targetPoint" />
          </mxGeometry>
        </mxCell>
        <mxCell id="A7s-7r5UUz3tGZf7DbAX-7" value="" style="endArrow=classic;html=1;exitX=0;exitY=1;exitDx=0;exitDy=0;" edge="1" parent="1" source="t_kX7gGa2HLUqVjrHy8t-14" target="A7s-7r5UUz3tGZf7DbAX-8">
          <mxGeometry width="50" height="50" relative="1" as="geometry">
            <mxPoint x="470" y="410" as="sourcePoint" />
            <mxPoint x="760" y="460" as="targetPoint" />
          </mxGeometry>
        </mxCell>
        <mxCell id="A7s-7r5UUz3tGZf7DbAX-8" value="Data for&amp;nbsp;&lt;br&gt;components&lt;br&gt;as props, from parent props" style="ellipse;whiteSpace=wrap;html=1;" vertex="1" parent="1">
          <mxGeometry x="650" y="440" width="120" height="80" as="geometry" />
        </mxCell>
        <mxCell id="A7s-7r5UUz3tGZf7DbAX-9" value="" style="endArrow=classic;html=1;exitX=0;exitY=0.5;exitDx=0;exitDy=0;entryX=0.808;entryY=-0.033;entryDx=0;entryDy=0;entryPerimeter=0;" edge="1" parent="1" source="A7s-7r5UUz3tGZf7DbAX-8" target="t_kX7gGa2HLUqVjrHy8t-15">
          <mxGeometry width="50" height="50" relative="1" as="geometry">
            <mxPoint x="470" y="390" as="sourcePoint" />
            <mxPoint x="520" y="340" as="targetPoint" />
          </mxGeometry>
        </mxCell>
        <mxCell id="A7s-7r5UUz3tGZf7DbAX-10" value="" style="endArrow=classic;html=1;exitX=0.992;exitY=0.763;exitDx=0;exitDy=0;exitPerimeter=0;entryX=0.683;entryY=-0.067;entryDx=0;entryDy=0;entryPerimeter=0;" edge="1" parent="1" source="A7s-7r5UUz3tGZf7DbAX-8" target="t_kX7gGa2HLUqVjrHy8t-18">
          <mxGeometry width="50" height="50" relative="1" as="geometry">
            <mxPoint x="470" y="390" as="sourcePoint" />
            <mxPoint x="520" y="340" as="targetPoint" />
          </mxGeometry>
        </mxCell>
        <mxCell id="A7s-7r5UUz3tGZf7DbAX-11" value="" style="endArrow=classic;html=1;exitX=0;exitY=0.5;exitDx=0;exitDy=0;" edge="1" parent="1" source="t_kX7gGa2HLUqVjrHy8t-18" target="A7s-7r5UUz3tGZf7DbAX-12">
          <mxGeometry width="50" height="50" relative="1" as="geometry">
            <mxPoint x="470" y="790" as="sourcePoint" />
            <mxPoint x="650" y="610" as="targetPoint" />
          </mxGeometry>
        </mxCell>
        <mxCell id="A7s-7r5UUz3tGZf7DbAX-12" value="Data for Chats and MEssages from parent props" style="ellipse;whiteSpace=wrap;html=1;" vertex="1" parent="1">
          <mxGeometry x="560" y="590" width="120" height="80" as="geometry" />
        </mxCell>
        <mxCell id="A7s-7r5UUz3tGZf7DbAX-13" value="" style="endArrow=classic;startArrow=classic;html=1;exitX=0.417;exitY=1;exitDx=0;exitDy=0;exitPerimeter=0;entryX=0;entryY=1;entryDx=0;entryDy=0;" edge="1" parent="1" source="A7s-7r5UUz3tGZf7DbAX-12" target="t_kX7gGa2HLUqVjrHy8t-26">
          <mxGeometry width="50" height="50" relative="1" as="geometry">
            <mxPoint x="470" y="780" as="sourcePoint" />
            <mxPoint x="520" y="730" as="targetPoint" />
          </mxGeometry>
        </mxCell>
        <mxCell id="A7s-7r5UUz3tGZf7DbAX-14" value="" style="endArrow=classic;html=1;exitX=1;exitY=0.288;exitDx=0;exitDy=0;exitPerimeter=0;entryX=0;entryY=0.25;entryDx=0;entryDy=0;" edge="1" parent="1" source="A7s-7r5UUz3tGZf7DbAX-12" target="t_kX7gGa2HLUqVjrHy8t-28">
          <mxGeometry width="50" height="50" relative="1" as="geometry">
            <mxPoint x="470" y="780" as="sourcePoint" />
            <mxPoint x="520" y="730" as="targetPoint" />
          </mxGeometry>
        </mxCell>
      </root>
    </mxGraphModel>
  </diagram>
</mxfile>
